<mxfile host="app.diagrams.net" agent="Mozilla/5.0 (Windows NT 10.0; Win64; x64) AppleWebKit/537.36 (KHTML, like Gecko) Chrome/130.0.0.0 Safari/537.36 Edg/130.0.0.0" version="24.8.3">
  <diagram name="Page-1" id="pDZjG1jgCxITa1x1sc_s">
    <mxGraphModel dx="1226" dy="1118" grid="1" gridSize="10" guides="1" tooltips="1" connect="1" arrows="1" fold="1" page="1" pageScale="1" pageWidth="850" pageHeight="1100" math="0" shadow="0">
      <root>
        <mxCell id="0" />
        <mxCell id="1" parent="0" />
        <mxCell id="0-LHZ655i0tbTzeiNvoL-8" value="" style="endArrow=none;html=1;rounded=0;strokeWidth=1;dashed=1;dashPattern=1 1;" parent="1" edge="1">
          <mxGeometry width="50" height="50" relative="1" as="geometry">
            <mxPoint x="125" y="140" as="sourcePoint" />
            <mxPoint x="725" y="140" as="targetPoint" />
          </mxGeometry>
        </mxCell>
        <mxCell id="0-LHZ655i0tbTzeiNvoL-9" value="" style="endArrow=none;html=1;rounded=0;dashed=1;dashPattern=1 1;" parent="1" edge="1">
          <mxGeometry width="50" height="50" relative="1" as="geometry">
            <mxPoint x="245" y="840" as="sourcePoint" />
            <mxPoint x="245" y="120" as="targetPoint" />
          </mxGeometry>
        </mxCell>
        <mxCell id="0-LHZ655i0tbTzeiNvoL-10" value="" style="endArrow=none;html=1;rounded=0;dashed=1;dashPattern=1 1;" parent="1" edge="1">
          <mxGeometry width="50" height="50" relative="1" as="geometry">
            <mxPoint x="360" y="840" as="sourcePoint" />
            <mxPoint x="365" y="120" as="targetPoint" />
          </mxGeometry>
        </mxCell>
        <mxCell id="0-LHZ655i0tbTzeiNvoL-11" value="" style="endArrow=none;html=1;rounded=0;dashed=1;dashPattern=1 1;" parent="1" edge="1">
          <mxGeometry width="50" height="50" relative="1" as="geometry">
            <mxPoint x="485" y="845" as="sourcePoint" />
            <mxPoint x="485" y="120" as="targetPoint" />
          </mxGeometry>
        </mxCell>
        <mxCell id="0-LHZ655i0tbTzeiNvoL-12" value="" style="endArrow=classic;html=1;rounded=0;fillColor=#d5e8d4;strokeColor=#82b366;" parent="1" edge="1">
          <mxGeometry width="50" height="50" relative="1" as="geometry">
            <mxPoint x="125" y="60" as="sourcePoint" />
            <mxPoint x="725" y="60" as="targetPoint" />
          </mxGeometry>
        </mxCell>
        <mxCell id="0-LHZ655i0tbTzeiNvoL-13" value="Flow of Work" style="text;html=1;align=center;verticalAlign=middle;whiteSpace=wrap;rounded=0;fontStyle=1" parent="1" vertex="1">
          <mxGeometry x="385" y="30" width="80" height="30" as="geometry" />
        </mxCell>
        <mxCell id="0-LHZ655i0tbTzeiNvoL-14" value="&lt;b&gt;Raw Data&lt;/b&gt;" style="text;html=1;align=center;verticalAlign=middle;whiteSpace=wrap;rounded=0;" parent="1" vertex="1">
          <mxGeometry x="55" y="50" width="60" height="30" as="geometry" />
        </mxCell>
        <mxCell id="0-LHZ655i0tbTzeiNvoL-15" value="&lt;b&gt;Final Outputs&lt;/b&gt;" style="text;html=1;align=center;verticalAlign=middle;whiteSpace=wrap;rounded=0;" parent="1" vertex="1">
          <mxGeometry x="735" y="50" width="80" height="30" as="geometry" />
        </mxCell>
        <mxCell id="0-LHZ655i0tbTzeiNvoL-16" value="Data Ingestion" style="text;html=1;align=center;verticalAlign=middle;whiteSpace=wrap;rounded=0;" parent="1" vertex="1">
          <mxGeometry x="125" y="110" width="120" height="30" as="geometry" />
        </mxCell>
        <mxCell id="0-LHZ655i0tbTzeiNvoL-17" value="Data Processing" style="text;html=1;align=center;verticalAlign=middle;whiteSpace=wrap;rounded=0;" parent="1" vertex="1">
          <mxGeometry x="245" y="110" width="120" height="30" as="geometry" />
        </mxCell>
        <mxCell id="0-LHZ655i0tbTzeiNvoL-18" value="Elementary Indexes" style="text;html=1;align=center;verticalAlign=middle;whiteSpace=wrap;rounded=0;" parent="1" vertex="1">
          <mxGeometry x="365" y="110" width="120" height="30" as="geometry" />
        </mxCell>
        <mxCell id="0-LHZ655i0tbTzeiNvoL-19" value="" style="endArrow=none;html=1;rounded=0;dashed=1;dashPattern=1 1;" parent="1" edge="1">
          <mxGeometry width="50" height="50" relative="1" as="geometry">
            <mxPoint x="605" y="840" as="sourcePoint" />
            <mxPoint x="605" y="120" as="targetPoint" />
          </mxGeometry>
        </mxCell>
        <mxCell id="0-LHZ655i0tbTzeiNvoL-20" value="Aggregation" style="text;html=1;align=center;verticalAlign=middle;whiteSpace=wrap;rounded=0;" parent="1" vertex="1">
          <mxGeometry x="485" y="110" width="120" height="30" as="geometry" />
        </mxCell>
        <mxCell id="0-LHZ655i0tbTzeiNvoL-21" value="Finalization" style="text;html=1;align=center;verticalAlign=middle;whiteSpace=wrap;rounded=0;" parent="1" vertex="1">
          <mxGeometry x="605" y="110" width="120" height="30" as="geometry" />
        </mxCell>
        <mxCell id="0-LHZ655i0tbTzeiNvoL-54" value="" style="rounded=1;whiteSpace=wrap;html=1;fillColor=#fff2cc;strokeColor=#d6b656;" parent="1" vertex="1">
          <mxGeometry x="130" y="150" width="587.5" height="670" as="geometry" />
        </mxCell>
        <mxCell id="0-LHZ655i0tbTzeiNvoL-57" style="edgeStyle=orthogonalEdgeStyle;rounded=0;orthogonalLoop=1;jettySize=auto;html=1;entryX=0;entryY=0.5;entryDx=0;entryDy=0;curved=1;" parent="1" source="0-LHZ655i0tbTzeiNvoL-65" target="0-LHZ655i0tbTzeiNvoL-113" edge="1">
          <mxGeometry relative="1" as="geometry" />
        </mxCell>
        <mxCell id="0-LHZ655i0tbTzeiNvoL-65" value="&lt;b&gt;System&lt;/b&gt;" style="ellipse;whiteSpace=wrap;html=1;fillColor=#d5e8d4;strokeColor=#82b366;" parent="1" vertex="1">
          <mxGeometry x="150" y="190" width="550" height="590" as="geometry" />
        </mxCell>
        <mxCell id="0-LHZ655i0tbTzeiNvoL-66" value="Team 1" style="text;html=1;align=center;verticalAlign=middle;whiteSpace=wrap;rounded=0;" parent="1" vertex="1">
          <mxGeometry x="600" y="770" width="85" height="30" as="geometry" />
        </mxCell>
        <mxCell id="0-LHZ655i0tbTzeiNvoL-82" style="edgeStyle=orthogonalEdgeStyle;rounded=0;orthogonalLoop=1;jettySize=auto;html=1;curved=1;" parent="1" source="0-LHZ655i0tbTzeiNvoL-83" target="0-LHZ655i0tbTzeiNvoL-65" edge="1">
          <mxGeometry relative="1" as="geometry">
            <mxPoint x="147.5" y="565" as="targetPoint" />
          </mxGeometry>
        </mxCell>
        <mxCell id="0-LHZ655i0tbTzeiNvoL-83" value="&lt;b&gt;Input&lt;/b&gt;" style="text;html=1;align=center;verticalAlign=middle;whiteSpace=wrap;rounded=0;strokeColor=default;" parent="1" vertex="1">
          <mxGeometry x="25" y="420" width="60" height="30" as="geometry" />
        </mxCell>
        <mxCell id="0-LHZ655i0tbTzeiNvoL-84" style="edgeStyle=orthogonalEdgeStyle;rounded=0;orthogonalLoop=1;jettySize=auto;html=1;entryX=0;entryY=0.5;entryDx=0;entryDy=0;curved=1;" parent="1" source="0-LHZ655i0tbTzeiNvoL-85" target="0-LHZ655i0tbTzeiNvoL-65" edge="1">
          <mxGeometry relative="1" as="geometry">
            <mxPoint x="147.5" y="565" as="targetPoint" />
          </mxGeometry>
        </mxCell>
        <mxCell id="0-LHZ655i0tbTzeiNvoL-85" value="&lt;b&gt;Input&lt;/b&gt;" style="text;html=1;align=center;verticalAlign=middle;whiteSpace=wrap;rounded=0;strokeColor=default;" parent="1" vertex="1">
          <mxGeometry x="25" y="470" width="60" height="30" as="geometry" />
        </mxCell>
        <mxCell id="0-LHZ655i0tbTzeiNvoL-86" style="edgeStyle=orthogonalEdgeStyle;rounded=0;orthogonalLoop=1;jettySize=auto;html=1;curved=1;" parent="1" source="0-LHZ655i0tbTzeiNvoL-87" target="0-LHZ655i0tbTzeiNvoL-65" edge="1">
          <mxGeometry relative="1" as="geometry">
            <mxPoint x="147.5" y="565" as="targetPoint" />
          </mxGeometry>
        </mxCell>
        <mxCell id="0-LHZ655i0tbTzeiNvoL-87" value="&lt;b&gt;Input&lt;/b&gt;" style="text;html=1;align=center;verticalAlign=middle;whiteSpace=wrap;rounded=0;strokeColor=default;" parent="1" vertex="1">
          <mxGeometry x="25" y="520" width="60" height="30" as="geometry" />
        </mxCell>
        <mxCell id="0-LHZ655i0tbTzeiNvoL-88" style="edgeStyle=orthogonalEdgeStyle;rounded=0;orthogonalLoop=1;jettySize=auto;html=1;curved=1;" parent="1" source="0-LHZ655i0tbTzeiNvoL-89" target="0-LHZ655i0tbTzeiNvoL-65" edge="1">
          <mxGeometry relative="1" as="geometry">
            <mxPoint x="147.5" y="565" as="targetPoint" />
          </mxGeometry>
        </mxCell>
        <mxCell id="0-LHZ655i0tbTzeiNvoL-89" value="&lt;b&gt;Input&lt;/b&gt;" style="text;html=1;align=center;verticalAlign=middle;whiteSpace=wrap;rounded=0;strokeColor=default;" parent="1" vertex="1">
          <mxGeometry x="25" y="570" width="60" height="30" as="geometry" />
        </mxCell>
        <mxCell id="0-LHZ655i0tbTzeiNvoL-90" style="edgeStyle=orthogonalEdgeStyle;rounded=0;orthogonalLoop=1;jettySize=auto;html=1;curved=1;" parent="1" source="0-LHZ655i0tbTzeiNvoL-91" target="0-LHZ655i0tbTzeiNvoL-65" edge="1">
          <mxGeometry relative="1" as="geometry">
            <mxPoint x="147.5" y="565" as="targetPoint" />
          </mxGeometry>
        </mxCell>
        <mxCell id="0-LHZ655i0tbTzeiNvoL-91" value="&lt;b&gt;Input&lt;/b&gt;" style="text;html=1;align=center;verticalAlign=middle;whiteSpace=wrap;rounded=0;strokeColor=default;" parent="1" vertex="1">
          <mxGeometry x="25" y="620" width="60" height="30" as="geometry" />
        </mxCell>
        <mxCell id="0-LHZ655i0tbTzeiNvoL-92" style="edgeStyle=orthogonalEdgeStyle;rounded=0;orthogonalLoop=1;jettySize=auto;html=1;curved=1;" parent="1" source="0-LHZ655i0tbTzeiNvoL-93" target="0-LHZ655i0tbTzeiNvoL-65" edge="1">
          <mxGeometry relative="1" as="geometry">
            <mxPoint x="147.5" y="565" as="targetPoint" />
          </mxGeometry>
        </mxCell>
        <mxCell id="0-LHZ655i0tbTzeiNvoL-93" value="&lt;b&gt;Input&lt;/b&gt;" style="text;html=1;align=center;verticalAlign=middle;whiteSpace=wrap;rounded=0;strokeColor=default;" parent="1" vertex="1">
          <mxGeometry x="25" y="670" width="60" height="30" as="geometry" />
        </mxCell>
        <mxCell id="0-LHZ655i0tbTzeiNvoL-94" style="edgeStyle=orthogonalEdgeStyle;rounded=0;orthogonalLoop=1;jettySize=auto;html=1;curved=1;" parent="1" source="0-LHZ655i0tbTzeiNvoL-95" target="0-LHZ655i0tbTzeiNvoL-65" edge="1">
          <mxGeometry relative="1" as="geometry">
            <mxPoint x="147.5" y="565" as="targetPoint" />
          </mxGeometry>
        </mxCell>
        <mxCell id="0-LHZ655i0tbTzeiNvoL-95" value="&lt;b&gt;Input&lt;/b&gt;" style="text;html=1;align=center;verticalAlign=middle;whiteSpace=wrap;rounded=0;strokeColor=default;" parent="1" vertex="1">
          <mxGeometry x="25" y="720" width="60" height="30" as="geometry" />
        </mxCell>
        <mxCell id="0-LHZ655i0tbTzeiNvoL-96" style="edgeStyle=orthogonalEdgeStyle;rounded=0;orthogonalLoop=1;jettySize=auto;html=1;entryX=0;entryY=0.5;entryDx=0;entryDy=0;curved=1;" parent="1" source="0-LHZ655i0tbTzeiNvoL-97" target="0-LHZ655i0tbTzeiNvoL-65" edge="1">
          <mxGeometry relative="1" as="geometry">
            <mxPoint x="147.5" y="565" as="targetPoint" />
          </mxGeometry>
        </mxCell>
        <mxCell id="0-LHZ655i0tbTzeiNvoL-97" value="&lt;b&gt;Input&lt;/b&gt;" style="text;html=1;align=center;verticalAlign=middle;whiteSpace=wrap;rounded=0;strokeColor=default;" parent="1" vertex="1">
          <mxGeometry x="25" y="770" width="60" height="30" as="geometry" />
        </mxCell>
        <mxCell id="0-LHZ655i0tbTzeiNvoL-113" value="&lt;b&gt;CPI&lt;/b&gt;" style="text;html=1;align=center;verticalAlign=middle;whiteSpace=wrap;rounded=0;strokeColor=default;" parent="1" vertex="1">
          <mxGeometry x="765" y="470" width="60" height="30" as="geometry" />
        </mxCell>
        <mxCell id="0-LHZ655i0tbTzeiNvoL-136" style="edgeStyle=orthogonalEdgeStyle;rounded=0;orthogonalLoop=1;jettySize=auto;html=1;entryX=0;entryY=0.5;entryDx=0;entryDy=0;curved=1;" parent="1" source="0-LHZ655i0tbTzeiNvoL-121" target="0-LHZ655i0tbTzeiNvoL-65" edge="1">
          <mxGeometry relative="1" as="geometry" />
        </mxCell>
        <mxCell id="0-LHZ655i0tbTzeiNvoL-121" value="&lt;b&gt;Input&lt;/b&gt;" style="text;html=1;align=center;verticalAlign=middle;whiteSpace=wrap;rounded=0;strokeColor=default;" parent="1" vertex="1">
          <mxGeometry x="25" y="170" width="60" height="30" as="geometry" />
        </mxCell>
        <mxCell id="0-LHZ655i0tbTzeiNvoL-135" style="edgeStyle=orthogonalEdgeStyle;rounded=0;orthogonalLoop=1;jettySize=auto;html=1;curved=1;" parent="1" source="0-LHZ655i0tbTzeiNvoL-122" target="0-LHZ655i0tbTzeiNvoL-65" edge="1">
          <mxGeometry relative="1" as="geometry" />
        </mxCell>
        <mxCell id="0-LHZ655i0tbTzeiNvoL-122" value="&lt;b&gt;Input&lt;/b&gt;" style="text;html=1;align=center;verticalAlign=middle;whiteSpace=wrap;rounded=0;strokeColor=default;" parent="1" vertex="1">
          <mxGeometry x="25" y="220" width="60" height="30" as="geometry" />
        </mxCell>
        <mxCell id="0-LHZ655i0tbTzeiNvoL-134" style="edgeStyle=orthogonalEdgeStyle;rounded=0;orthogonalLoop=1;jettySize=auto;html=1;entryX=0;entryY=0.5;entryDx=0;entryDy=0;curved=1;" parent="1" source="0-LHZ655i0tbTzeiNvoL-123" target="0-LHZ655i0tbTzeiNvoL-65" edge="1">
          <mxGeometry relative="1" as="geometry" />
        </mxCell>
        <mxCell id="0-LHZ655i0tbTzeiNvoL-123" value="&lt;b&gt;Input&lt;/b&gt;" style="text;html=1;align=center;verticalAlign=middle;whiteSpace=wrap;rounded=0;strokeColor=default;" parent="1" vertex="1">
          <mxGeometry x="25" y="270" width="60" height="30" as="geometry" />
        </mxCell>
        <mxCell id="0-LHZ655i0tbTzeiNvoL-133" style="edgeStyle=orthogonalEdgeStyle;rounded=0;orthogonalLoop=1;jettySize=auto;html=1;curved=1;" parent="1" source="0-LHZ655i0tbTzeiNvoL-124" target="0-LHZ655i0tbTzeiNvoL-65" edge="1">
          <mxGeometry relative="1" as="geometry" />
        </mxCell>
        <mxCell id="0-LHZ655i0tbTzeiNvoL-124" value="&lt;b&gt;Input&lt;/b&gt;" style="text;html=1;align=center;verticalAlign=middle;whiteSpace=wrap;rounded=0;strokeColor=default;" parent="1" vertex="1">
          <mxGeometry x="25" y="320" width="60" height="30" as="geometry" />
        </mxCell>
        <mxCell id="0-LHZ655i0tbTzeiNvoL-132" style="edgeStyle=orthogonalEdgeStyle;rounded=0;orthogonalLoop=1;jettySize=auto;html=1;entryX=0;entryY=0.5;entryDx=0;entryDy=0;curved=1;" parent="1" source="0-LHZ655i0tbTzeiNvoL-125" target="0-LHZ655i0tbTzeiNvoL-65" edge="1">
          <mxGeometry relative="1" as="geometry" />
        </mxCell>
        <mxCell id="0-LHZ655i0tbTzeiNvoL-125" value="&lt;b&gt;Input&lt;/b&gt;" style="text;html=1;align=center;verticalAlign=middle;whiteSpace=wrap;rounded=0;strokeColor=default;" parent="1" vertex="1">
          <mxGeometry x="25" y="370" width="60" height="30" as="geometry" />
        </mxCell>
      </root>
    </mxGraphModel>
  </diagram>
</mxfile>
